<svg version="1.2" xmlns="http://www.w3.org/2000/svg" viewBox="0 0 2000 592" width="2000" height="592">
	<title>weaponsdetectioncom_697384189-svg</title>
	<defs>
		<clipPath clipPathUnits="userSpaceOnUse" id="cp1">
			<path d="m624.26 303.39l-142.06-142.06c-37.68-37.68-88.78-58.84-142.06-58.84-80.17 0-149.37 46.96-181.6 114.87-1.36-0.99-1.9-2.8-1.24-4.4 11.71-28.15 28.9-54.03 50.87-76 91.92-91.92 240.95-91.92 332.87 0l166.43 166.43z"/>
		</clipPath>
		<linearGradient id="g1" x2="1" gradientUnits="userSpaceOnUse" gradientTransform="matrix(-242.508,-242.508,242.508,-242.508,592.743,334.902)">
			<stop offset="0" stop-color="#e97724"/>
			<stop offset="1" stop-color="#f68a1f"/>
		</linearGradient>
		<clipPath clipPathUnits="userSpaceOnUse" id="cp2">
			<path d="m124.96 303.39l142.06 142.06c37.68 37.68 88.78 58.84 142.06 58.84 80.17 0 149.37-46.96 181.6-114.87 1.36 0.99 1.9 2.8 1.24 4.4-11.71 28.15-28.9 54.03-50.87 76-91.92 91.92-240.95 91.92-332.87 0l-166.44-166.43z"/>
		</clipPath>
		<linearGradient id="g2" x2="1" gradientUnits="userSpaceOnUse" gradientTransform="matrix(242.508,242.508,-242.508,242.508,156.469,271.874)">
			<stop offset="0" stop-color="#039cd1"/>
			<stop offset="1" stop-color="#29b9ec"/>
		</linearGradient>
	</defs>
	<style>
		.s0 { fill: #010101 } 
		.s1 { fill: #29b9ec } 
		.s2 { fill: #f68a1f } 
		.s3 { fill: #ee3424 } 
		.s4 { fill: url(#g1) } 
		.s5 { fill: url(#g2) } 
	</style>
	<path id="Layer" fill-rule="evenodd" class="s0" d="m1893.5 467.4q-0.5 1.3-1 2.3-0.5 1-1.2 1.7-0.7 0.7-1.7 1.1-1.1 0.3-2.6 0.3-1.6 0-2.6-0.4-1.1-0.5-1.8-1.2-0.7-0.8-1.2-1.7-0.4-1-0.8-2.1l-11.6-30.2q-0.1-0.3-0.4-0.9-0.4-0.6-0.7-0.5-0.5-0.1-0.6 0.6-0.1 0.6-0.1 0.7l0.2 35.2h-8.5v-39.8q0-2.2 0.9-3.4 1-1.2 2.2-1.8 1.3-0.5 2.5-0.6 1.2-0.1 1.7-0.1 1.9 0 3.2 0.4 1.4 0.5 2.2 1.3 0.9 0.8 1.5 1.8 0.6 1.1 1 2.3l11.7 30.1q0.3 0.7 0.6 1.2 0.3 0.5 0.6 0.5 0.3 0 0.6-0.5 0.3-0.5 0.6-1.2l11.7-30.1q0.7-2 1.6-3.1 0.9-1.1 1.9-1.7 1.1-0.7 2.2-0.8 1.1-0.2 2.3-0.2 3.1 0 5.2 1.4 2.1 1.4 2.1 4.5v39.8h-8.5l0.2-35.2q0-0.9-0.3-1.1-0.3-0.3-0.5-0.3-0.3 0-0.6 0.6-0.3 0.5-0.5 0.9zm-40.4 4.9h-29.4q-1.5 0-2.8-0.1-1.3-0.2-2.4-1.3-1.1-1.1-1.4-2.5-0.2-1.5-0.3-2.8v-32q0-1.4 0.5-2.6 0.4-1.3 1.1-2.1 1.1-1.3 2.6-1.5 1.5-0.3 2.8-0.3h29v6.8h-24.4q-0.6 0-1.2 0.1-0.6 0.1-1.1 0.5-0.5 0.6-0.6 1.1-0.1 0.6-0.1 1.1v9.1h26.8v6.8h-26.8v10.6q0 1.2 0.6 1.8 0.4 0.3 1.1 0.4 0.8 0.1 1.8 0.1h24.2zm-65.7 0v-38.4h-17.6v-6.8h43.8v6.8h-17.7v38.4zm-55.7 0v-6.7h25q1.6 0 2.4-0.6 0.9-0.5 1.3-1.3 0.4-0.8 0.5-1.6 0.1-0.9 0.1-1.4 0-0.7-0.1-1.4-0.2-0.7-0.6-1.4-0.5-0.7-1.3-1.3-0.9-0.6-2.4-1.1l-17.8-5.6q-0.3 0-0.9-0.3-0.6-0.2-1.4-0.6-0.7-0.4-1.6-1-0.8-0.6-1.5-1.4-0.8-0.9-1.2-2-0.5-1.1-0.7-2.3-0.3-1.1-0.3-2.2-0.1-1.1-0.1-2.1 0-2 0.5-4.3 0.5-2.3 2.4-4.1 1.7-1.6 3.7-2.1 2-0.4 3.7-0.4h26.1v6.8h-23.2q-0.9 0-1.8 0.2-0.9 0.1-1.7 0.8-0.8 0.8-1 1.8-0.2 1.1-0.2 1.7 0 1.5 0.8 2.9 0.7 1.3 3.4 2.2l16.6 5.2q2.2 0.8 3.8 1.5 1.6 0.8 2.6 1.8 1.1 0.9 1.6 2.1 0.6 1.2 0.9 2.4 0.3 1.2 0.4 2.3 0.1 1.1 0.1 1.9 0 2.1-0.4 4.3-0.4 2.3-1.9 4.1-1.6 2.2-3.7 2.7-2.1 0.5-4.3 0.5zm-9.8-45.2h9.2l-19.1 31.4v13.8h-8.5v-13.8l-19.2-31.4h9.2l14.2 23.7zm-75.7 45.2v-6.7h25.1q1.5 0 2.3-0.6 0.9-0.5 1.3-1.3 0.4-0.8 0.5-1.6 0.1-0.9 0.1-1.4 0-0.7-0.1-1.4-0.1-0.7-0.6-1.4-0.4-0.7-1.3-1.3-0.9-0.6-2.4-1.1l-17.8-5.6q-0.3 0-0.9-0.3-0.6-0.2-1.4-0.6-0.7-0.4-1.6-1-0.8-0.6-1.5-1.4-0.7-0.9-1.2-2-0.4-1.1-0.7-2.3-0.3-1.1-0.3-2.2-0.1-1.1-0.1-2.1 0-2 0.5-4.3 0.5-2.3 2.4-4.1 1.8-1.6 3.8-2.1 2-0.4 3.7-0.4h26v6.8h-23.1q-0.9 0-1.9 0.2-0.9 0.1-1.7 0.8-0.8 0.8-1 1.8-0.2 1.1-0.1 1.7 0 1.5 0.7 2.9 0.7 1.3 3.5 2.2l16.5 5.2q2.2 0.8 3.8 1.5 1.6 0.8 2.7 1.8 1 0.9 1.6 2.1 0.5 1.2 0.8 2.4 0.3 1.2 0.4 2.3 0.1 1.1 0.1 1.9 0 2.1-0.4 4.3-0.4 2.3-1.8 4.1-1.7 2.2-3.8 2.7-2.1 0.5-4.3 0.5zm-21.4-5.9q-0.1 3.5-2 4.9-2 1.5-4.8 1.5-2 0-3.9-0.7-1.9-0.7-3.4-3.1l-19-30.1q-0.5-0.7-0.7-0.9-0.2-0.2-0.3-0.2-0.3 0-0.6 0.3-0.3 0.3-0.3 1v33.2h-8.3v-39.6q0-2.9 1.8-4.5 1.9-1.6 5.1-1.6 3 0 4.6 1 1.7 1.1 2.6 2.5l19.1 30.3q0.3 0.4 0.5 0.7 0.1 0.4 0.6 0.4 0.5 0 0.6-0.4 0.1-0.4 0.1-0.7v-33.3h8.3zm-68.6-39.8q2.3 0.1 4.8 0.5 2.4 0.5 4.7 1.5 2.3 0.9 4.1 2.7 1.8 1.7 2.8 4 1.1 2.2 1.6 4.7 0.6 2.4 0.7 5 0.1 2.5 0.1 4.7 0 2.3-0.1 4.7-0.2 2.5-0.7 5-0.5 2.4-1.6 4.7-1 2.3-2.8 3.9-1.8 1.8-4.1 2.8-2.3 1-4.7 1.4-2.5 0.5-4.8 0.6-2.4 0-4.4 0-2 0-4.3 0-2.4-0.1-4.8-0.6-2.4-0.4-4.7-1.4-2.3-1-4.2-2.8-1.9-1.8-3-4.2-1.1-2.4-1.6-4.9-0.4-2.5-0.5-4.9-0.1-2.4-0.1-4.3 0-2.3 0.1-4.8 0.1-2.5 0.7-4.9 0.5-2.4 1.5-4.7 1-2.2 2.9-4 1.9-1.8 4.2-2.7 2.3-1 4.7-1.5 2.4-0.4 4.7-0.5 2.4 0 4.4 0 2 0 4.4 0zm-18.6 27.9q0.2 2 0.6 3.5 0.4 1.6 0.9 2.6 0.5 1 1 1.7 1 1.3 2.3 2 1.3 0.7 2.8 1.1 1.5 0.4 3.1 0.5 1.7 0.1 3.5 0.1 1.7 0 3.3-0.1 1.7-0.1 3.2-0.5 1.5-0.4 2.8-1.1 1.3-0.7 2.3-2 0.6-0.7 1.1-1.8 0.5-1 0.9-2.5 0.4-1.5 0.6-3.5 0.2-2.1 0.2-4.8 0-2.9-0.2-5-0.2-2.1-0.6-3.6-0.4-1.5-0.9-2.5-0.5-0.9-1-1.6-2-2.4-5.1-3-3.1-0.7-6.6-0.7-3.6 0-6.6 0.7-3.1 0.6-5.1 3-1.3 1.7-2 4.6-0.7 2.9-0.7 8.1 0 2.8 0.2 4.8zm-24 17.8v-45.2h8.5v45.2zm-29.4 0v-38.4h-17.7v-6.8h43.9v6.8h-17.7v38.4zm-38 0q-1.6 0-3.4-0.2-1.9-0.1-3.8-0.7-1.9-0.5-3.8-1.6-1.8-1.1-3.4-2.8-1.6-1.8-2.5-3.9-0.9-2.2-1.3-4.4-0.5-2.2-0.6-4.3-0.2-2.2-0.2-4.1 0-2.4 0.2-4.8 0.2-2.4 0.6-4.7 0.5-2.3 1.3-4.3 0.9-2.1 2.3-3.7 1.7-2 3.8-3.2 2-1.1 4.1-1.7 2.1-0.6 3.9-0.7 1.8-0.1 3-0.1h18.2v6.8h-14.2q-1.9 0-3.6 0.1-1.7 0.1-3.3 0.5-1.5 0.5-2.7 1.3-1.3 0.8-2.3 2.3-1 1.5-1.7 4.3-0.8 2.8-0.8 7.8 0 2.5 0.2 4.4 0.2 1.8 0.5 3.1 0.3 1.3 0.7 2.1 0.4 0.9 0.7 1.4 1.8 2.6 4.8 3.5 3.1 0.8 7.1 0.8h15.3v6.8c0 0-19.1 0-19.1 0zm-23.5 0h-29.4q-1.5 0-2.8-0.1-1.3-0.2-2.4-1.3-1.1-1.1-1.4-2.6-0.2-1.4-0.3-2.7v-32q0.1-1.4 0.5-2.7 0.4-1.2 1.1-2.1 1.1-1.2 2.6-1.4 1.5-0.3 2.8-0.3h29v6.8h-24.4q-0.6 0-1.2 0.1-0.6 0.1-1.1 0.5-0.5 0.5-0.6 1.1-0.1 0.6-0.1 1.1v9.1h26.8v6.8h-26.8v10.6q0 1.2 0.6 1.7 0.4 0.4 1.2 0.5 0.7 0.1 1.7 0.1h24.2zm-65.7 0v-38.4h-17.6v-6.8h43.8v6.8h-17.7v38.4zm-18.9 0h-29.4q-1.5 0-2.8-0.1-1.2-0.2-2.3-1.3-1.2-1.1-1.5-2.6-0.2-1.4-0.2-2.7v-32q0-1.4 0.4-2.7 0.4-1.2 1.1-2.1 1.1-1.2 2.6-1.5 1.6-0.2 2.9-0.2h29v6.8h-24.5q-0.5 0-1.2 0.1-0.6 0.1-1.1 0.5-0.5 0.5-0.6 1.1-0.1 0.6-0.1 1.1v9.1h26.8v6.8h-26.8v10.6q0 1.2 0.6 1.7 0.4 0.4 1.2 0.5 0.7 0.1 1.8 0.1h24.1zm-59.3 0h-18.4q-2.5 0-3.7-0.5-1.1-0.5-1.4-0.7-0.6-0.5-1.2-1.6-0.6-1.1-0.6-2.9v-32.3q0-1.3 0.2-2.6 0.2-1.4 1.3-2.7 0.6-0.5 1.7-1.2 1.1-0.7 3.2-0.7h17.7q4.7 0 7.9 1.5 3.3 1.6 5.3 3.9 1.7 1.8 2.6 3.8 0.9 2.1 1.4 4.3 0.4 2.2 0.5 4.4 0.1 2.2 0.1 4.2 0 1.8-0.1 4.1-0.1 2.3-0.5 4.7-0.4 2.3-1.2 4.6-0.8 2.3-2.2 4.1-0.7 0.9-1.7 1.9-1.1 1-2.6 1.8-1.6 0.9-3.6 1.4-2.1 0.5-4.7 0.5zm-16.8-35.7v25.8q0 0.7 0.1 1.3 0 0.6 0.5 1.1 0.5 0.6 1.1 0.6 0.5 0.1 1.1 0.1h9.8q3.6 0 5.9-0.9 2.4-0.9 3.9-3.3 0.8-1.3 1.5-4.2 0.7-2.8 0.7-8.6 0-1.4-0.1-3 0-1.5-0.4-3-0.3-1.5-0.9-2.9-0.7-1.4-1.7-2.5-1-1-2.2-1.6-1.2-0.7-2.5-1-1.3-0.4-2.6-0.5-1.3-0.2-2.4-0.2h-8.9q-0.3 0-0.9 0.1-0.6 0.1-1.1 0.4-0.4 0.3-0.6 0.9-0.3 0.7-0.3 1.4zm-67.5 35.7v-6.8h25.1q1.5 0 2.3-0.5 0.9-0.6 1.3-1.4 0.4-0.7 0.5-1.6 0.1-0.8 0.1-1.4 0-0.6-0.1-1.3-0.1-0.8-0.6-1.4-0.4-0.7-1.3-1.3-0.9-0.6-2.4-1.1l-17.8-5.6q-0.2-0.1-0.9-0.3-0.6-0.2-1.4-0.7-0.7-0.4-1.6-1-0.8-0.5-1.5-1.4-0.7-0.9-1.2-2-0.4-1.1-0.7-2.2-0.3-1.1-0.3-2.2-0.1-1.1-0.1-2.1 0-2.1 0.5-4.3 0.5-2.3 2.4-4.1 1.8-1.7 3.8-2.1 2-0.4 3.7-0.4h26v6.8h-23.1q-0.9 0-1.9 0.1-0.9 0.2-1.7 0.9-0.8 0.8-1 1.8-0.2 1-0.1 1.7 0 1.5 0.7 2.8 0.7 1.4 3.5 2.3l16.5 5.2q2.2 0.7 3.8 1.5 1.6 0.8 2.6 1.7 1.1 1 1.7 2.2 0.6 1.2 0.8 2.4 0.3 1.2 0.4 2.3 0.1 1.1 0.1 1.8 0 2.2-0.4 4.4-0.4 2.2-1.8 4-1.7 2.2-3.8 2.8-2 0.5-4.3 0.5zm-6.4-5.9q0 3.4-2 4.9-1.9 1.5-4.7 1.5-2.1 0-4-0.7-1.8-0.7-3.3-3.1l-19.1-30.1q-0.5-0.7-0.7-0.9-0.2-0.2-0.3-0.2-0.2 0-0.6 0.3-0.3 0.3-0.3 1v33.2h-8.3v-39.6q0-2.9 1.9-4.5 1.8-1.6 5.1-1.6 3 0 4.6 1 1.6 1 2.5 2.5l19.2 30.3q0.3 0.3 0.4 0.7 0.2 0.4 0.6 0.4 0.5 0 0.6-0.4 0.1-0.4 0.1-0.7v-33.3h8.3zm-68.6-39.8q2.4 0.1 4.8 0.5 2.4 0.4 4.7 1.4 2.3 1 4.2 2.8 1.8 1.7 2.8 3.9 1 2.3 1.6 4.8 0.5 2.4 0.6 4.9 0.2 2.6 0.2 4.7 0 2.3-0.2 4.8-0.1 2.5-0.7 4.9-0.5 2.5-1.5 4.8-1 2.2-2.8 3.9-1.9 1.8-4.2 2.8-2.2 0.9-4.7 1.4-2.4 0.5-4.8 0.5-2.4 0.1-4.3 0.1-2 0-4.4-0.1-2.3-0.1-4.8-0.5-2.4-0.4-4.7-1.4-2.3-1-4.1-2.8-2-1.9-3-4.3-1.1-2.4-1.6-4.8-0.5-2.5-0.6-4.9-0.1-2.4-0.1-4.4 0-2.3 0.2-4.8 0.1-2.4 0.6-4.9 0.5-2.4 1.6-4.6 1-2.2 2.9-4 1.8-1.8 4.1-2.8 2.3-0.9 4.7-1.4 2.4-0.4 4.8-0.5 2.3-0.1 4.4-0.1 2 0 4.3 0.1zm-18.6 27.8q0.3 2.1 0.6 3.6 0.4 1.5 0.9 2.5 0.5 1 1.1 1.7 1 1.3 2.2 2.1 1.3 0.7 2.8 1.1 1.5 0.4 3.2 0.5 1.7 0.1 3.4 0.1 1.7 0 3.4-0.1 1.7-0.1 3.2-0.5 1.5-0.4 2.8-1.1 1.3-0.8 2.3-2.1 0.6-0.7 1.1-1.7 0.4-1 0.8-2.5 0.4-1.5 0.6-3.6 0.3-2 0.3-4.8 0-2.9-0.3-5-0.2-2.1-0.6-3.6-0.3-1.4-0.9-2.4-0.5-1-1-1.6-2-2.5-5.1-3.1-3.1-0.6-6.6-0.6-3.5 0-6.6 0.6-3 0.6-5 3.1-1.3 1.7-2 4.5-0.8 2.9-0.8 8.1 0 2.8 0.2 4.8zm-46.2 17.8h-8.5v-38.4q0-1.3 0.2-2.6 0.2-1.3 1.4-2.4 1-1.1 2.5-1.4 1.4-0.4 2.6-0.4h21.5q0.9 0 2 0.1 1.1 0 2.3 0.3 1.2 0.2 2.4 0.8 1.2 0.5 2.3 1.5 1.1 1.1 1.8 2.6 0.7 1.5 1 3.1 0.4 1.6 0.5 3.2 0.1 1.6 0.1 3 0 1.4-0.2 3.1-0.1 1.7-0.5 3.4-0.4 1.7-1.1 3.3-0.8 1.5-2.2 2.6-1.3 1.1-3.1 1.7-1.8 0.5-3.8 0.5h-21.2zm0-22.7h16.2q1.5 0 3-0.2 1.5-0.2 2.6-1.5 0.5-0.6 0.8-1.4 0.3-0.8 0.5-1.7 0.1-0.8 0.2-1.6 0-0.9 0-1.5 0-1.5-0.3-3.3-0.2-1.8-1.3-2.9-1.1-1.1-2.7-1.3-1.5-0.3-2.6-0.3h-13.8q-0.4 0-1 0.1-0.5 0-1 0.5-0.4 0.5-0.5 1-0.1 0.6-0.1 1.1zm-42.3-17.8q1.2-2.8 2.8-4 1.6-1.1 4.6-1.1 2.9 0 4.6 1.1 1.6 1.2 2.8 4l17.1 40.6h-9l-4.6-11.4h-21.8l-4.6 11.4h-9zm-1.3 23.2h17.4l-7.4-18.5q-0.2-0.5-0.5-1.1-0.3-0.7-0.8-0.7-0.4 0-0.8 0.7-0.3 0.6-0.5 1.1zm-15.7 17.6h-29.4q-1.5 0-2.8-0.2-1.3-0.2-2.4-1.3-1.2-1-1.4-2.5-0.3-1.5-0.3-2.8v-32q0-1.4 0.4-2.6 0.5-1.3 1.2-2.1 1.1-1.2 2.6-1.5 1.5-0.3 2.8-0.3h29v6.8h-24.4q-0.6 0-1.2 0.1-0.6 0.1-1.2 0.6-0.5 0.5-0.6 1.1-0.1 0.6-0.1 1.1v9.1h26.8v6.8h-26.8v10.5q0 1.3 0.7 1.8 0.4 0.4 1.1 0.5 0.8 0.1 1.8 0.1h24.2zm926.3-0.1v-6.7h25.1q1.5 0 2.4-0.6 0.8-0.5 1.2-1.3 0.5-0.7 0.5-1.6 0.2-0.8 0.1-1.4 0.1-0.7-0.1-1.4-0.1-0.7-0.6-1.4-0.4-0.6-1.3-1.3-0.9-0.6-2.3-1l-17.9-5.6q-0.2-0.1-0.8-0.3-0.7-0.3-1.4-0.7-0.8-0.4-1.6-1-0.9-0.6-1.5-1.4-0.8-0.9-1.3-2-0.4-1.1-0.7-2.2-0.2-1.2-0.3-2.3-0.1-1.1-0.1-2 0-2.1 0.5-4.4 0.5-2.2 2.4-4 1.8-1.7 3.8-2.1 2-0.5 3.7-0.5h26v6.8h-23.1q-0.9 0-1.9 0.2-0.9 0.2-1.7 0.9-0.8 0.7-1 1.8-0.1 1-0.1 1.6 0 1.5 0.7 2.9 0.8 1.3 3.5 2.2l16.5 5.3q2.3 0.7 3.9 1.5 1.5 0.7 2.6 1.7 1 1 1.6 2.2 0.6 1.2 0.9 2.4 0.3 1.1 0.3 2.2 0.2 1.1 0.1 1.9 0 2.1-0.4 4.4-0.4 2.2-1.8 4-1.7 2.2-3.8 2.7-2 0.6-4.3 0.5zm-1005.1-41q0.2-0.7 0.5-1.5 0.3-0.8 1-1.5 0.7-0.7 1.8-1.2 1.1-0.5 2.9-0.5 1.7 0 2.8 0.5 1.1 0.4 1.8 1.1 0.7 0.7 1.1 1.5 0.4 0.8 0.6 1.6l8.4 30.9q0.1 0.3 0.4 0.7 0.2 0.4 0.6 0.4 0.2 0 0.5-0.3 0.3-0.2 0.5-1.1l9-34.8h8.6l-10.9 39.4q-0.3 1.1-0.7 2.3-0.4 1.1-1.2 2-0.9 0.9-2.1 1.5-1.3 0.6-3.3 0.6-1.8 0-3.1-0.5-1.2-0.5-2-1.3-0.8-0.8-1.3-1.8-0.5-1.1-0.8-2.2l-7.9-29.3q-0.4-1.2-0.9-1.2-0.4 0-0.6 0.4-0.2 0.5-0.3 0.8l-8 29.3q-0.2 0.9-0.7 1.9-0.4 1-1.2 1.9-0.7 0.9-2 1.4-1.3 0.6-3.3 0.6-2.7 0-4.5-1.3-1.8-1.3-2.8-5.1l-10.9-39.4h8.7l9 34.8q0.1 0.4 0.3 0.9 0.1 0.5 0.6 0.5 0.4 0 0.6-0.4 0.3-0.4 0.4-0.7z"/>
	<path id="Layer" fill-rule="evenodd" class="s0" d="m1687.3 367.7v-34h200.1c19.6 0 28.8-7.6 28.8-21.3v-29.1c0-13.7-9.2-21.2-28.8-21.2h-135.3c-52.4 0-72.3-22.6-72.3-55.6v-13.4c0-33.1 19.9-55.6 72.3-55.6h194.8v34h-194.8c-19.7 0-28.8 7.5-28.8 21.2v14.1c0 13.7 9.1 21.2 28.8 21.2h135.3c52.3 0 72.3 22.6 72.3 55.6v28.5c0 33-20 55.6-72.3 55.6zm-339.7 0v-230.2h210.9c65.1 0 85 22.5 85 68v96.5c0 43.1-19.9 65.7-85 65.7 0 0-210.9 0-210.9 0zm252.4-162.2c0-26.5-9.1-34-41.5-34h-167.4v162.2h167.4c32.4 0 41.5-7.6 41.5-32.1zm-412.6 162.2l-79.8-176.6-81.4 176.6h-31.7l-106-230.2h41.9l80.1 176.6 80.7-176.6h32.4l79.8 176.6 80.8-176.6h42.1l-106.2 230.2z"/>
	<path id="Layer" fill-rule="evenodd" class="s1" d="m591.9 393.8c-11.7 28.2-28.9 54-50.9 76-91.9 91.9-240.9 91.9-332.8 0l-166.5-166.4h97.9c45.6 0 84.8 16.2 117.1 48.5l69.2 69.2c65 65 170.3 65 235.3 0 9.3-9.3 17.4-19.6 24.2-30.6 1-1.7 3.1-2.3 4.8-1.4 1.7 0.9 2.4 2.9 1.7 4.7z"/>
	<path id="Layer" fill-rule="evenodd" class="s2" d="m157.3 213c11.7-28.2 28.9-54.1 50.9-76 91.9-92 240.9-92 332.8 0l166.5 166.4h-97.9c-45.6 0-84.8-16.3-117-48.5l-69.2-69.2c-65-65-170.4-65-235.4 0-9.3 9.3-17.4 19.6-24.2 30.6-1 1.7-3.1 2.2-4.8 1.4-1.7-0.9-2.4-3-1.7-4.7z"/>
	<path id="Layer" fill-rule="evenodd" class="s3" d="m374.6 220.2c46 0 83.2 37.2 83.2 83.2 0 45.9-37.2 83.2-83.2 83.2-45.9 0-83.2-37.3-83.2-83.2 0-46 37.2-83.2 83.2-83.2zm-24.4 83.2c0 13.5 11 24.4 24.4 24.4 13.5 0 24.4-10.9 24.4-24.4 0-13.5-10.9-24.4-24.4-24.4-13.5 0-24.4 10.9-24.4 24.4z"/>
	<g id="Layer">
		<g id="Clip-Path" clip-path="url(#cp1)">
			<path id="Layer" class="s4" d="m156.6 45h550.9v258.4h-550.9z"/>
		</g>
	</g>
	<g id="Layer">
		<g id="Clip-Path" clip-path="url(#cp2)">
			<path id="Layer" class="s5" d="m41.7 303.4h550.9v258.3h-550.9z"/>
		</g>
	</g>
	<path id="Layer" class="s0" d="m788.8 74.1h8.5v462.1h-8.5z"/>
</svg>